<svg xmlns="http://www.w3.org/2000/svg" viewBox="0 0 32 32" fill="none" role="img" aria-label="flowdotcom">
  <title>flowdotcom</title>
  <rect width="32" height="32" rx="6.4" fill="#04070f"/>
  <svg x="5.76" y="5.76" width="20.48" height="20.48" viewBox="0 0 24 24" fill="none" aria-hidden="true">
    <path
      d="M4 14a1 1 0 0 1-.78-1.63l9.9-10.2a.5.5 0 0 1 .86.46l-1.92 6.02A1 1 0 0 0 13 10h7a1 1 0 0 1 .78 1.63l-9.9 10.2a.5.5 0 0 1-.86-.46l1.92-6.02A1 1 0 0 0 11 14z"
      stroke="#ffffff"
      stroke-width="2.25"
      stroke-linecap="round"
      stroke-linejoin="round"
    />
  </svg>
</svg>
